<svg width="84" height="94" viewBox="0 0 84 94" fill="none" xmlns="http://www.w3.org/2000/svg">
<path d="M22.2609 15.0019C18.0994 17.9252 14.5526 21.6422 11.8231 25.9406C9.09347 30.239 7.23452 35.0347 6.35236 40.0538C5.47019 45.073 5.58208 50.2173 6.68164 55.1931C7.7812 60.1689 9.84689 64.8786 12.7608 69.0535C17.161 75.3512 23.3271 80.1953 30.4764 82.971C37.6258 85.7467 45.436 86.3289 52.9157 84.6436C45.869 85.6192 38.6906 84.6268 32.1697 81.7754C25.6487 78.9239 20.0377 74.3239 15.9535 68.4809C13.0396 64.3061 10.9739 59.5963 9.87437 54.6205C8.77481 49.6448 8.66291 44.5004 9.54507 39.4813C10.4272 34.4621 12.2862 29.6664 15.0158 25.368C17.7453 21.0696 21.2921 17.3526 25.4536 14.4294C29.6049 11.5142 34.2867 9.44562 39.2329 8.34119C33.1275 9.1738 27.3087 11.4574 22.2609 15.0019Z" fill="#FFF5EB"/>
<path d="M77.1577 29.0383C73.738 22.607 68.3794 17.4247 61.8476 14.2321C55.3159 11.0395 47.9453 10 40.7893 11.2622C36.3331 12.0505 32.0754 13.7116 28.2591 16.1507C24.4428 18.5898 21.1427 21.7591 18.5473 25.4777C15.9519 29.1962 14.112 33.3912 13.1327 37.8232C12.1533 42.2551 12.0537 46.8372 12.8394 51.3077C13.6131 55.6861 15.2216 59.8735 17.5766 63.6405C15.862 60.4282 14.6643 56.964 14.0282 53.3764C13.2424 48.9059 13.3421 44.3238 14.3214 39.8919C15.3008 35.4599 17.1407 31.2649 19.7361 27.5464C22.3315 23.8278 25.6316 20.6585 29.4479 18.2194C33.2642 15.7803 37.5219 14.1192 41.9781 13.3309C48.7344 12.1384 55.6917 12.9962 61.9591 15.7945C68.2264 18.5929 73.5185 23.2043 77.1577 29.0383Z" fill="#FFF5EB"/>
<path d="M45.2119 28.059H40.4812V61.6951H45.2119V28.059ZM31.9761 28.059H26.8931L33.7878 44.6786L26.4402 61.6951H31.7245L38.8205 44.7778L31.9761 28.059Z" fill="#FFF5EB"/>
<path d="M47.6313 42.9908C47.6313 40.7205 48.3969 38.9619 49.9281 37.7148C51.4926 36.4678 53.7061 35.8442 56.5687 35.8442C59.4314 35.8442 61.7614 36.132 63.5588 36.7076V41.0243C61.7614 40.3528 59.5811 40.017 57.0181 40.017C53.9225 40.017 52.3746 41.1202 52.3746 43.3265V45.1971C52.3746 46.2203 52.5744 47.0357 52.9738 47.6432C53.4065 48.2188 54.1555 48.7943 55.2206 49.3699L61.0124 52.4875C63.7086 53.8944 65.0567 56.0208 65.0567 58.8666V61.5525C65.0567 63.8867 64.2079 65.6933 62.5103 66.9724C60.8127 68.2194 58.4161 68.8429 55.3205 68.8429C52.2581 68.8429 49.795 68.5072 47.9309 67.8357V63.519C50.1278 64.2864 52.4412 64.6701 54.8711 64.6701C58.4993 64.6701 60.3134 63.487 60.3134 61.1209V59.4901C60.3134 58.5308 60.1304 57.7954 59.7642 57.2838C59.3981 56.7402 58.7157 56.2126 57.7171 55.701L52.0751 52.7273C49.1126 51.1925 47.6313 48.9062 47.6313 45.8686V42.9908Z" fill="#FFF5EB"/>
<path d="M22.2609 15.0019C18.0994 17.9252 14.5526 21.6422 11.8231 25.9406C9.09347 30.239 7.23452 35.0347 6.35236 40.0538C5.47019 45.073 5.58208 50.2173 6.68164 55.1931C7.7812 60.1689 9.84689 64.8786 12.7608 69.0535C17.161 75.3512 23.3271 80.1953 30.4764 82.971C37.6258 85.7467 45.436 86.3289 52.9157 84.6436C45.869 85.6192 38.6906 84.6268 32.1697 81.7754C25.6487 78.9239 20.0377 74.3239 15.9535 68.4809C13.0396 64.3061 10.9739 59.5963 9.87437 54.6205C8.77481 49.6448 8.66291 44.5004 9.54507 39.4813C10.4272 34.4621 12.2862 29.6664 15.0158 25.368C17.7453 21.0696 21.2921 17.3526 25.4536 14.4294C29.6049 11.5142 34.2867 9.44562 39.2329 8.34119C33.1275 9.1738 27.3087 11.4574 22.2609 15.0019Z" fill="#FFF5EB"/>
<path d="M77.1577 29.0383C73.738 22.607 68.3794 17.4247 61.8476 14.2321C55.3159 11.0395 47.9453 10 40.7893 11.2622C36.3331 12.0505 32.0754 13.7116 28.2591 16.1507C24.4428 18.5898 21.1427 21.7591 18.5473 25.4777C15.9519 29.1962 14.112 33.3912 13.1327 37.8232C12.1533 42.2551 12.0537 46.8372 12.8394 51.3077C13.6131 55.6861 15.2216 59.8735 17.5766 63.6405C15.862 60.4282 14.6643 56.964 14.0282 53.3764C13.2424 48.9059 13.3421 44.3238 14.3214 39.8919C15.3008 35.4599 17.1407 31.2649 19.7361 27.5464C22.3315 23.8278 25.6316 20.6585 29.4479 18.2194C33.2642 15.7803 37.5219 14.1192 41.9781 13.3309C48.7344 12.1384 55.6917 12.9962 61.9591 15.7945C68.2264 18.5929 73.5185 23.2043 77.1577 29.0383Z" fill="#FFF5EB"/>
<path d="M45.2119 28.059H40.4812V61.6951H45.2119V28.059ZM31.9761 28.059H26.8931L33.7878 44.6786L26.4402 61.6951H31.7245L38.8205 44.7778L31.9761 28.059Z" fill="#FFF5EB"/>
<path d="M47.6313 42.9908C47.6313 40.7205 48.3969 38.9619 49.9281 37.7148C51.4926 36.4678 53.7061 35.8442 56.5687 35.8442C59.4314 35.8442 61.7614 36.132 63.5588 36.7076V41.0243C61.7614 40.3528 59.5811 40.017 57.0181 40.017C53.9225 40.017 52.3746 41.1202 52.3746 43.3265V45.1971C52.3746 46.2203 52.5744 47.0357 52.9738 47.6432C53.4065 48.2188 54.1555 48.7943 55.2206 49.3699L61.0124 52.4875C63.7086 53.8944 65.0567 56.0208 65.0567 58.8666V61.5525C65.0567 63.8867 64.2079 65.6933 62.5103 66.9724C60.8127 68.2194 58.4161 68.8429 55.3205 68.8429C52.2581 68.8429 49.795 68.5072 47.9309 67.8357V63.519C50.1278 64.2864 52.4412 64.6701 54.8711 64.6701C58.4993 64.6701 60.3134 63.487 60.3134 61.1209V59.4901C60.3134 58.5308 60.1304 57.7954 59.7642 57.2838C59.3981 56.7402 58.7157 56.2126 57.7171 55.701L52.0751 52.7273C49.1126 51.1925 47.6313 48.9062 47.6313 45.8686V42.9908Z" fill="#FFF5EB"/>
<path d="M22.2609 15.0019C18.0994 17.9252 14.5526 21.6422 11.8231 25.9406C9.09347 30.239 7.23452 35.0347 6.35236 40.0538C5.47019 45.073 5.58208 50.2173 6.68164 55.1931C7.7812 60.1689 9.84689 64.8786 12.7608 69.0535C17.161 75.3512 23.3271 80.1953 30.4764 82.971C37.6258 85.7467 45.436 86.3289 52.9157 84.6436C45.869 85.6192 38.6906 84.6268 32.1697 81.7754C25.6487 78.9239 20.0377 74.3239 15.9535 68.4809C13.0396 64.3061 10.9739 59.5963 9.87437 54.6205C8.77481 49.6448 8.66291 44.5004 9.54507 39.4813C10.4272 34.4621 12.2862 29.6664 15.0158 25.368C17.7453 21.0696 21.2921 17.3526 25.4536 14.4294C29.6049 11.5142 34.2867 9.44562 39.2329 8.34119C33.1275 9.1738 27.3087 11.4574 22.2609 15.0019Z" fill="#FFF5EB"/>
<path d="M77.1577 29.0383C73.738 22.607 68.3794 17.4247 61.8476 14.2321C55.3159 11.0395 47.9453 10 40.7893 11.2622C36.3331 12.0505 32.0754 13.7116 28.2591 16.1507C24.4428 18.5898 21.1427 21.7591 18.5473 25.4777C15.9519 29.1962 14.112 33.3912 13.1327 37.8232C12.1533 42.2551 12.0537 46.8372 12.8394 51.3077C13.6131 55.6861 15.2216 59.8735 17.5766 63.6405C15.862 60.4282 14.6643 56.964 14.0282 53.3764C13.2424 48.9059 13.3421 44.3238 14.3214 39.8919C15.3008 35.4599 17.1407 31.2649 19.7361 27.5464C22.3315 23.8278 25.6316 20.6585 29.4479 18.2194C33.2642 15.7803 37.5219 14.1192 41.9781 13.3309C48.7344 12.1384 55.6917 12.9962 61.9591 15.7945C68.2264 18.5929 73.5185 23.2043 77.1577 29.0383Z" fill="#FFF5EB"/>
<path d="M45.2119 28.059H40.4812V61.6951H45.2119V28.059ZM31.9761 28.059H26.8931L33.7878 44.6786L26.4402 61.6951H31.7245L38.8205 44.7778L31.9761 28.059Z" fill="#FFF5EB"/>
<path d="M47.6313 42.9908C47.6313 40.7205 48.3969 38.9619 49.9281 37.7148C51.4926 36.4678 53.7061 35.8442 56.5687 35.8442C59.4314 35.8442 61.7614 36.132 63.5588 36.7076V41.0243C61.7614 40.3528 59.5811 40.017 57.0181 40.017C53.9225 40.017 52.3746 41.1202 52.3746 43.3265V45.1971C52.3746 46.2203 52.5744 47.0357 52.9738 47.6432C53.4065 48.2188 54.1555 48.7943 55.2206 49.3699L61.0124 52.4875C63.7086 53.8944 65.0567 56.0208 65.0567 58.8666V61.5525C65.0567 63.8867 64.2079 65.6933 62.5103 66.9724C60.8127 68.2194 58.4161 68.8429 55.3205 68.8429C52.2581 68.8429 49.795 68.5072 47.9309 67.8357V63.519C50.1278 64.2864 52.4412 64.6701 54.8711 64.6701C58.4993 64.6701 60.3134 63.487 60.3134 61.1209V59.4901C60.3134 58.5308 60.1304 57.7954 59.7642 57.2838C59.3981 56.7402 58.7157 56.2126 57.7171 55.701L52.0751 52.7273C49.1126 51.1925 47.6313 48.9062 47.6313 45.8686V42.9908Z" fill="#FFF5EB"/>
<path d="M22.2609 15.0019C18.0994 17.9252 14.5526 21.6422 11.8231 25.9406C9.09347 30.239 7.23452 35.0347 6.35236 40.0538C5.47019 45.073 5.58208 50.2173 6.68164 55.1931C7.7812 60.1689 9.84689 64.8786 12.7608 69.0535C17.161 75.3512 23.3271 80.1953 30.4764 82.971C37.6258 85.7467 45.436 86.3289 52.9157 84.6436C45.869 85.6192 38.6906 84.6268 32.1697 81.7754C25.6487 78.9239 20.0377 74.3239 15.9535 68.4809C13.0396 64.3061 10.9739 59.5963 9.87437 54.6205C8.77481 49.6448 8.66291 44.5004 9.54507 39.4813C10.4272 34.4621 12.2862 29.6664 15.0158 25.368C17.7453 21.0696 21.2921 17.3526 25.4536 14.4294C29.6049 11.5142 34.2867 9.44562 39.2329 8.34119C33.1275 9.1738 27.3087 11.4574 22.2609 15.0019Z" fill="#FFF5EB"/>
<path d="M77.1577 29.0383C73.738 22.607 68.3794 17.4247 61.8476 14.2321C55.3159 11.0395 47.9453 10 40.7893 11.2622C36.3331 12.0505 32.0754 13.7116 28.2591 16.1507C24.4428 18.5898 21.1427 21.7591 18.5473 25.4777C15.9519 29.1962 14.112 33.3912 13.1327 37.8232C12.1533 42.2551 12.0537 46.8372 12.8394 51.3077C13.6131 55.6861 15.2216 59.8735 17.5766 63.6405C15.862 60.4282 14.6643 56.964 14.0282 53.3764C13.2424 48.9059 13.3421 44.3238 14.3214 39.8919C15.3008 35.4599 17.1407 31.2649 19.7361 27.5464C22.3315 23.8278 25.6316 20.6585 29.4479 18.2194C33.2642 15.7803 37.5219 14.1192 41.9781 13.3309C48.7344 12.1384 55.6917 12.9962 61.9591 15.7945C68.2264 18.5929 73.5185 23.2043 77.1577 29.0383Z" fill="#FFF5EB"/>
<path d="M45.2119 28.059H40.4812V61.6951H45.2119V28.059ZM31.9761 28.059H26.8931L33.7878 44.6786L26.4402 61.6951H31.7245L38.8205 44.7778L31.9761 28.059Z" fill="#FFF5EB"/>
<path d="M47.6313 42.9908C47.6313 40.7205 48.3969 38.9619 49.9281 37.7148C51.4926 36.4678 53.7061 35.8442 56.5687 35.8442C59.4314 35.8442 61.7614 36.132 63.5588 36.7076V41.0243C61.7614 40.3528 59.5811 40.017 57.0181 40.017C53.9225 40.017 52.3746 41.1202 52.3746 43.3265V45.1971C52.3746 46.2203 52.5744 47.0357 52.9738 47.6432C53.4065 48.2188 54.1555 48.7943 55.2206 49.3699L61.0124 52.4875C63.7086 53.8944 65.0567 56.0208 65.0567 58.8666V61.5525C65.0567 63.8867 64.2079 65.6933 62.5103 66.9724C60.8127 68.2194 58.4161 68.8429 55.3205 68.8429C52.2581 68.8429 49.795 68.5072 47.9309 67.8357V63.519C50.1278 64.2864 52.4412 64.6701 54.8711 64.6701C58.4993 64.6701 60.3134 63.487 60.3134 61.1209V59.4901C60.3134 58.5308 60.1304 57.7954 59.7642 57.2838C59.3981 56.7402 58.7157 56.2126 57.7171 55.701L52.0751 52.7273C49.1126 51.1925 47.6313 48.9062 47.6313 45.8686V42.9908Z" fill="#FFF5EB"/>
</svg>
